<?xml version="1.0" encoding="UTF-8"?>
<svg xmlns="http://www.w3.org/2000/svg" xmlns:xlink="http://www.w3.org/1999/xlink" width="0" height="0">
	<symbol id="moon" fill="none" viewBox="0 0 24 24" stroke-width="1.5" stroke="currentColor">
		<path stroke-linecap="round" stroke-linejoin="round"
			d="M21.752 15.002A9.718 9.718 0 0118 15.75c-5.385 0-9.75-4.365-9.75-9.75 0-1.33.266-2.597.748-3.752A9.753 9.753 0 003 11.25C3 16.635 7.365 21 12.75 21a9.753 9.753 0 009.002-5.998z" />
	</symbol>
	<symbol id="sun" fill="none" viewBox="0 0 24 24" stroke-width="1.5" stroke="currentColor">
		<path stroke-linecap="round" stroke-linejoin="round"
			d="M12 3v2.25m6.364.386l-1.591 1.591M21 12h-2.25m-.386 6.364l-1.591-1.591M12 18.75V21m-4.773-4.227l-1.591 1.591M5.25 12H3m4.227-4.773L5.636 5.636M15.75 12a3.75 3.75 0 11-7.5 0 3.75 3.75 0 017.5 0z" />
	</symbol>
	<symbol id="menu" fill="none" viewBox="0 0 24 24" stroke-width="1.5" stroke="currentColor">
		<path stroke-linecap="round" stroke-linejoin="round" d="M3.75 6.75h16.5M3.75 12h16.5m-16.5 5.25h16.5" />
	</symbol>
	<symbol id="close" fill="none" viewBox="0 0 24 24" stroke-width="1.5" stroke="currentColor">
		<path stroke-linecap="round" stroke-linejoin="round" d="M6 18L18 6M6 6l12 12" />
	</symbol>
	<symbol id="computer" fill="none" viewBox="0 0 24 24" stroke-width="1.5" stroke="currentColor">
		<path stroke-linecap="round" stroke-linejoin="round"
			d="M9 17.25v1.007a3 3 0 01-.879 2.122L7.5 21h9l-.621-.621A3 3 0 0115 18.257V17.25m6-12V15a2.25 2.25 0 01-2.25 2.25H5.25A2.25 2.25 0 013 15V5.25m18 0A2.25 2.25 0 0018.75 3H5.25A2.25 2.25 0 003 5.25m18 0V12a2.25 2.25 0 01-2.25 2.25H5.25A2.25 2.25 0 013 12V5.25" />
	</symbol>
	<symbol id="avatar" fill="none" viewBox="0 0 24 24" stroke-width="1.5" stroke="currentColor">
		<path stroke-linecap="round" stroke-linejoin="round"
			d="M15.75 6a3.75 3.75 0 11-7.5 0 3.75 3.75 0 017.5 0zM4.501 20.118a7.5 7.5 0 0114.998 0A17.933 17.933 0 0112 21.75c-2.676 0-5.216-.584-7.499-1.632z" />
	</symbol>
	<symbol id="search" fill="none" viewBox="0 0 24 24" stroke-width="1.5" stroke="currentColor">
		<path stroke-linecap="round" stroke-linejoin="round"
			d="M21 21l-5.197-5.197m0 0A7.5 7.5 0 105.196 5.196a7.5 7.5 0 0010.607 10.607z" />
	</symbol>
	<symbol id="check" fill="none" viewBox="0 0 24 24" stroke-width="1.5" stroke="currentColor">
		<path stroke-linecap="round" stroke-linejoin="round" d="M4.5 12.75l6 6 9-13.5" />
	</symbol>
</svg>